HIERARCHY
ROOT Hips
{
    OFFSET 0.000000 0.000000 0.000000
    CHANNELS 6 Xposition Yposition Zposition Zrotation Xrotation Yrotation
    JOINT Spine
    {
        OFFSET -0.000000 6.800997 0.000000
        CHANNELS 3 Xposition Yposition Zposition
        JOINT Spine1
        {
            OFFSET -0.000000 15.076976 0.000000
            CHANNELS 3 Xposition Yposition Zposition
            JOINT Neck
            {
                OFFSET -0.000000 16.735754 0.000000
                CHANNELS 3 Xposition Yposition Zposition
                JOINT Head
                {
                    OFFSET -0.000000 12.855545 1.658780
                    CHANNELS 3 Xposition Yposition Zposition
                    End Site
                    {
                        OFFSET -0.000000 16.587799 0.000000
                    }
                }
            }
            JOINT LeftShoulder
            {
                OFFSET 3.297964 11.877930 -0.634173
                CHANNELS 3 Xposition Yposition Zposition
                JOINT LeftArm
                {
                    OFFSET 14.955791 0.000000 0.000000
                    CHANNELS 3 Xposition Yposition Zposition
                    JOINT LeftForeArm
                    {
                        OFFSET 20.046839 0.000000 0.000000
                        CHANNELS 3 Xposition Yposition Zposition
                        JOINT LeftHand
                        {
                            OFFSET 18.470182 0.000000 0.000000
                            CHANNELS 3 Xposition Yposition Zposition
                            End Site
                            {
                                OFFSET 12.440849 0.000000 0.000000
                            }
                        }
                    }
                }
            }
            JOINT RightShoulder
            {
                OFFSET -3.336920 11.877930 -0.634173
                CHANNELS 3 Xposition Yposition Zposition
                JOINT RightArm
                {
                    OFFSET -14.955791 0.000000 0.000000
                    CHANNELS 3 Xposition Yposition Zposition
                    JOINT RightForeArm
                    {
                        OFFSET -20.046839 0.000000 0.000000
                        CHANNELS 3 Xposition Yposition Zposition
                        JOINT RightHand
                        {
                            OFFSET -18.470182 0.000000 0.000000
                            CHANNELS 3 Xposition Yposition Zposition
                            End Site
                            {
                                OFFSET -12.440849 0.000000 0.000000
                            }
                        }
                    }
                }
            }
        }
    }
    JOINT LeftUpLeg
    {
        OFFSET 8.293900 0.000000 0.000000
        CHANNELS 3 Xposition Yposition Zposition
        JOINT LeftLeg
        {
            OFFSET -0.000000 -37.774677 0.000000
            CHANNELS 3 Xposition Yposition Zposition
            JOINT LeftFoot
            {
                OFFSET -0.000000 -32.041210 0.000000
                CHANNELS 3 Xposition Yposition Zposition
                JOINT LeftToeBase
                {
                    OFFSET -0.000000 -5.391035 12.440849
                    CHANNELS 3 Xposition Yposition Zposition
                    End Site
                    {
                        OFFSET -0.000000 0.000000 3.317559
                    }
                }
            }
        }
    }
    JOINT RightUpLeg
    {
        OFFSET -8.293900 0.000000 0.000000
        CHANNELS 3 Xposition Yposition Zposition
        JOINT RightLeg
        {
            OFFSET -0.000000 -37.774677 0.000000
            CHANNELS 3 Xposition Yposition Zposition
            JOINT RightFoot
            {
                OFFSET -0.000000 -32.041210 0.000000
                CHANNELS 3 Xposition Yposition Zposition
                JOINT RightToeBase
                {
                    OFFSET -0.000000 -5.391035 12.440849
                    CHANNELS 3 Xposition Yposition Zposition
                    End Site
                    {
                        OFFSET -0.000000 0.000000 3.317559
                    }
                }
            }
        }
    }
}
MOTION
Frames: 9
Frame Time: 0.050000
0.000000 38.173317 -0.000000 -0.002632 43.071461 -0.241836 0.141372 53.812611 -2.296744 -0.249065 65.847466 -2.081731 0.102082 74.633766 -0.323432 0.476710 86.028618 -2.558748 2.136410 63.426464 -2.178497 10.670598 63.805622 -2.419573 14.247548 49.494415 0.165226 10.676919 44.757252 6.586833 7.894557 41.538315 10.139580 -2.626266 63.336864 -2.122493 -10.110927 63.776646 -2.696009 -14.484111 49.840607 -0.856046 -12.010628 45.265800 5.924636 -10.271861 42.219578 9.554776 5.689568 38.221542 -0.139957 6.727838 12.213564 -1.077742 7.057277 -9.909584 -2.443067 7.156966 -13.544149 6.245643 7.189452 -13.507759 8.545097 -5.703591 38.120647 0.140387
0.000000 47.615314 -0.000000 -0.027833 53.825512 -0.308837 0.201079 67.210037 -2.905837 -0.293429 81.944313 -2.715416 0.149269 92.899620 -0.503654 0.578581 107.196777 -3.135294 2.707977 79.034752 -2.836850 13.120404 79.644989 -3.179332 17.451181 61.642326 -0.072546 13.401664 54.781261 7.992442 10.952102 50.259415 12.270155 -3.269045 78.952820 -2.737734 -12.515987 79.582497 -3.374342 -17.744968 62.042831 -1.151963 -14.934916 55.376217 7.362591 -13.627561 50.958649 11.796960 7.136038 47.678867 -0.166989 8.435998 15.226213 -1.320969 8.909040 -12.534016 -3.202731 9.121069 -17.057737 7.623871 9.188688 -17.010984 10.489684 -7.157102 47.544209 0.167672
0.000000 54.399017 -0.000000 -0.033839 61.545174 -0.347781 0.222582 76.786377 -3.343217 -0.337313 93.434975 -3.212430 0.180019 105.947006 -0.664080 0.636871 122.315887 -3.524680 3.095095 90.180794 -3.351915 14.819155 90.972061 -3.763306 19.749743 70.309380 -0.305835 15.503678 61.834759 8.943143 13.288791 56.355549 13.750829 -3.740673 90.108711 -3.215374 -14.204116 90.895340 -3.873456 -20.094978 70.748390 -1.390206 -17.176123 62.488724 8.359008 -16.177908 57.065262 13.369712 8.160773 54.469467 -0.203641 9.661894 17.381874 -1.466213 10.250955 -14.485963 -3.778370 10.534567 -19.643892 8.582673 10.623242 -19.588995 11.854506 -8.185984 54.318333 0.204525
0.000000 57.286655 -0.000000 -0.035797 64.804016 -0.366686 0.242709 80.882965 -3.511664 -0.348070 98.451019 -3.371926 0.199413 111.662834 -0.701119 0.670034 128.906555 -3.721322 3.269536 94.988754 -3.519239 15.651162 95.833763 -3.962895 20.833084 74.135979 -0.309783 16.330795 65.341904 9.428887 13.953193 59.629276 14.496153 -3.933630 94.920158 -3.376557 -14.989242 95.742020 -4.069966 -21.206076 74.596512 -1.458923 -18.086708 66.030098 8.816794 -17.003792 60.381832 14.102122 8.598280 57.362087 -0.214703 10.167179 18.322811 -1.546418 10.784704 -15.220627 -3.959278 11.072715 -20.648634 9.055468 11.165130 -20.590471 12.500146 -8.625149 57.198345 0.215734
0.000000 58.294559 -0.000000 -0.036136 65.944313 -0.372437 0.247856 82.308655 -3.572464 -0.353030 100.188080 -3.433260 0.205851 113.642082 -0.716713 0.679780 131.196472 -3.778360 3.329061 96.657341 -3.583687 15.932078 97.525757 -4.038253 21.196842 75.447563 -0.318981 16.622231 66.490311 9.589706 14.211410 60.668472 14.743444 -4.002660 96.590500 -3.437503 -15.258032 97.430855 -4.137752 -21.579472 75.915695 -1.483970 -18.401388 67.190048 8.972829 -17.307507 61.433239 14.349654 8.751354 58.370556 -0.220091 10.346481 18.649157 -1.568771 10.972860 -15.493113 -4.024892 11.264173 -21.014978 9.217767 11.358321 -20.955582 12.722646 -8.778767 58.204029 0.221174
0.000000 58.655952 -0.000000 -0.036309 66.349922 -0.374734 0.250711 82.820496 -3.591671 -0.354235 100.821411 -3.448370 0.208655 114.365509 -0.717900 0.684696 132.029892 -3.800372 3.351335 97.259468 -3.600163 16.044407 98.133362 -4.058809 21.345499 75.939011 -0.312559 16.736378 66.966667 9.651215 14.295936 61.126415 14.836634 -4.026959 97.193413 -3.453798 -15.361981 98.036568 -4.159055 -21.731916 76.410233 -1.489761 -18.526052 67.671288 9.027518 -17.415344 61.898998 14.436788 8.806643 58.732552 -0.221376 10.408588 18.770960 -1.578390 11.035008 -15.576498 -4.040685 11.325347 -21.132080 9.283305 11.419691 -21.072315 12.809689 -8.834271 58.564297 0.222484
0.000000 58.830353 -0.000000 -0.036647 66.533455 -0.378084 0.259821 83.080917 -3.588676 -0.349558 101.186790 -3.429145 0.213938 114.790047 -0.705758 0.691777 132.503128 -3.824992 3.368737 97.583023 -3.581289 16.160704 98.446037 -4.047122 21.477116 76.251808 -0.261346 16.774900 67.439713 9.719551 14.215659 61.667850 14.933887 -4.032763 97.516472 -3.439300 -15.454000 98.344841 -4.160062 -21.864796 76.725952 -1.473928 -18.578745 68.151886 9.074293 -17.370283 62.460594 14.510060 8.833958 58.908611 -0.218326 10.428988 18.836309 -1.596890 11.051550 -15.576208 -4.017301 11.325968 -21.147249 9.347281 11.417121 -21.087162 12.884335 -8.861727 58.736797 0.219472
0.000000 58.908607 -0.000000 -0.036818 66.616982 -0.378206 0.262018 83.190750 -3.578157 -0.348375 101.331116 -3.412997 0.216416 114.958122 -0.692887 0.692989 132.694839 -3.815964 3.374415 97.711815 -3.566769 16.204264 98.572166 -4.034855 21.570410 76.413986 -0.247763 16.907137 67.649445 9.710390 14.357260 61.898422 14.918271 -4.035958 97.645821 -3.425967 -15.493244 98.470230 -4.148654 -21.954853 76.888130 -1.466632 -18.709255 68.362022 9.059483 -17.515072 62.694366 14.486128 8.843719 58.986839 -0.216443 10.431897 18.876575 -1.594999 11.050040 -15.567612 -3.999350 11.322618 -21.144873 9.379532 11.413626 -21.084801 12.920390 -8.871644 58.814655 0.217606
0.000000 58.945999 -0.000000 -0.036855 66.658829 -0.378388 0.262408 83.244240 -3.580098 -0.348468 101.398293 -3.414527 0.216782 115.035149 -0.693071 0.693421 132.783188 -3.818887 3.376816 97.775284 -3.568397 16.216858 98.635895 -4.037094 21.585451 76.465782 -0.246319 16.915907 67.701836 9.718210 14.360558 61.949753 14.930062 -4.038455 97.709175 -3.427588 -15.504635 98.533752 -4.150969 -21.970274 76.940331 -1.466838 -18.719328 68.415070 9.066488 -17.521244 62.746868 14.497130 8.849483 59.024277 -0.216552 10.438339 18.888926 -1.596191 11.056496 -15.576483 -4.000771 11.328802 -21.157225 9.386697 11.419779 -21.097088 12.929826 -8.877419 58.851910 0.217717
